<svg width="8" height="12" viewBox="0 0 8 12" fill="none" xmlns="http://www.w3.org/2000/svg">
<path d="M7.84208 1.40821L6.3573 0.111078C6.31552 0.0744817 6.26631 0.0458314 6.21248 0.0267675C6.15866 0.00770259 6.10128 -0.00140023 6.04363 -2.40803e-05C5.98598 0.00135112 5.9292 0.0131767 5.87652 0.0347831C5.82384 0.0563886 5.7763 0.0873496 5.73663 0.12589L0.120617 5.71897C0.0444927 5.79289 0.00151443 5.89056 0.000294208 5.99242C-0.000925541 6.09428 0.0397053 6.1928 0.11404 6.26825L5.72274 11.8681C5.76151 11.9073 5.80831 11.9392 5.86046 11.9618C5.9126 11.9844 5.96907 11.9973 6.02665 11.9998C6.08422 12.0023 6.14177 11.9944 6.196 11.9764C6.25023 11.9584 6.30006 11.9307 6.34268 11.895L7.85598 10.6261C7.89863 10.5904 7.93322 10.5473 7.95778 10.4993C7.98233 10.4513 7.99637 10.3993 7.99909 10.3463C8.0018 10.2933 7.99314 10.2403 7.9736 10.1904C7.95406 10.1404 7.92404 10.0945 7.88522 10.0553L4.0106 6.21372C3.96104 6.16343 3.93396 6.09775 3.93477 6.02984C3.93559 5.96193 3.96423 5.89682 4.01498 5.84754L7.85452 1.97903C7.93503 1.9018 7.97895 1.79829 7.97662 1.69125C7.97428 1.58422 7.9259 1.48241 7.84208 1.40821Z" fill="#222222"/>
</svg>
